<svg width="34" height="34" viewBox="0 0 34 34" fill="none" xmlns="http://www.w3.org/2000/svg">
<g clip-path="url(#clip0_1_32679)">
<g filter="url(#filter0_d_1_32679)">
<mask id="mask0_1_32679" style="mask-type:luminance" maskUnits="userSpaceOnUse" x="2" y="-1" width="30" height="31">
<path d="M18.1663 10.9167C20.9048 10.9167 23.1247 8.69675 23.1247 5.95833C23.1247 3.21992 20.9048 1 18.1663 1C15.4279 1 13.208 3.21992 13.208 5.95833C13.208 8.69675 15.4279 10.9167 18.1663 10.9167Z" fill="#909090" stroke="white" stroke-width="2.83333" stroke-linecap="round" stroke-linejoin="round"/>
<path d="M4 27.2083C4 20.9488 9.70846 15.875 16.75 15.875" stroke="#909090" stroke-width="2.83333" stroke-linecap="round" stroke-linejoin="round"/>
<path d="M23.1253 27.9167L30.2087 20.8333L27.3753 18L20.292 25.0833V27.9167H23.1253Z" fill="#909090" stroke="white" stroke-width="2.83333" stroke-linecap="round" stroke-linejoin="round"/>
</mask>
<g mask="url(#mask0_1_32679)">
<path d="M1.16699 -1.83325H35.167V32.1667H1.16699V-1.83325Z" fill="#909090"/>
</g>
</g>
</g>
<defs>
<filter id="filter0_d_1_32679" x="-1.41699" y="-0.416626" width="37.042" height="37.75" filterUnits="userSpaceOnUse" color-interpolation-filters="sRGB">
<feFlood flood-opacity="0" result="BackgroundImageFix"/>
<feColorMatrix in="SourceAlpha" type="matrix" values="0 0 0 0 0 0 0 0 0 0 0 0 0 0 0 0 0 0 127 0" result="hardAlpha"/>
<feOffset dy="4"/>
<feGaussianBlur stdDeviation="2"/>
<feComposite in2="hardAlpha" operator="out"/>
<feColorMatrix type="matrix" values="0 0 0 0 0 0 0 0 0 0 0 0 0 0 0 0 0 0 0.25 0"/>
<feBlend mode="normal" in2="BackgroundImageFix" result="effect1_dropShadow_1_32679"/>
<feBlend mode="normal" in="SourceGraphic" in2="effect1_dropShadow_1_32679" result="shape"/>
</filter>
<clipPath id="clip0_1_32679">
<rect width="34" height="34" fill="white"/>
</clipPath>
</defs>
</svg>
