<svg width="21" height="20" viewBox="0 0 21 20" fill="none" xmlns="http://www.w3.org/2000/svg">
<path d="M10.6903 0C11.9811 0 13.2191 0.517488 14.1319 1.43862C15.0447 2.35976 15.5575 3.60908 15.5575 4.91176C15.5575 6.21445 15.0447 7.46377 14.1319 8.38491C13.2191 9.30604 11.9811 9.82353 10.6903 9.82353C9.39939 9.82353 8.16138 9.30604 7.24859 8.38491C6.3358 7.46377 5.82301 6.21445 5.82301 4.91176C5.82301 3.60908 6.3358 2.35976 7.24859 1.43862C8.16138 0.517488 9.39939 0 10.6903 0ZM10.6903 12.2794C16.0686 12.2794 20.4248 14.4774 20.4248 17.1912V19.6471H0.95575V17.1912C0.95575 14.4774 5.31194 12.2794 10.6903 12.2794Z" fill="#565656"/>
</svg>
