<svg width="15" height="12" viewBox="0 0 15 12" fill="none" xmlns="http://www.w3.org/2000/svg">
<path id="Vector" d="M13.3333 4.16667V1.66667C13.3333 1.22464 13.1577 0.800716 12.8452 0.488155C12.5326 0.175595 12.1087 0 11.6667 0H3.33333C2.89131 0 2.46738 0.175595 2.15482 0.488155C1.84226 0.800716 1.66667 1.22464 1.66667 1.66667V4.16667C1.22464 4.16667 0.800716 4.34226 0.488155 4.65482C0.175595 4.96738 0 5.39131 0 5.83333V10H1.10833L1.66667 11.6667H2.5L3.05833 10H11.9417L12.5 11.6667H13.3333L13.8917 10H15V5.83333C15 5.39131 14.8244 4.96738 14.5118 4.65482C14.1993 4.34226 13.7754 4.16667 13.3333 4.16667ZM11.6667 4.16667H3.33333V1.66667H11.6667V4.16667Z" fill="black" fill-opacity="0.8"/>
</svg>
