<svg width="24" height="18" viewBox="0 0 24 18" fill="none" xmlns="http://www.w3.org/2000/svg">
<path id="Vector" d="M4.8 0C4.164 0 3.6 0.27 3.108 0.771428C2.616 1.27286 2.4 1.86429 2.4 2.57143V6.42857C1.74 6.42857 1.2 6.67286 0.72 7.18714C0.24 7.70143 0 8.31857 0 9V15.4286H1.596L2.4 18H3.6L4.404 15.4286H19.596L20.4 18H21.6L22.404 15.4286H24V9C24 8.31857 23.748 7.71429 23.28 7.18714C22.8 6.67286 22.26 6.42857 21.6 6.42857V2.57143C21.6 1.86429 21.372 1.28571 20.892 0.771428C20.412 0.257143 19.836 0 19.2 0M4.8 2.57143H10.8V6.42857H4.8M13.2 2.57143H19.2V6.42857H13.2V2.57143Z" fill="black"/>
</svg>
