<svg width="13" height="13" viewBox="0 0 13 13" fill="none" xmlns="http://www.w3.org/2000/svg">
<path id="Vector" d="M6.5 0C7.36195 0 8.1886 0.34241 8.7981 0.951903C9.40759 1.5614 9.75 2.38805 9.75 3.25C9.75 4.11195 9.40759 4.9386 8.7981 5.5481C8.1886 6.15759 7.36195 6.5 6.5 6.5C5.63805 6.5 4.8114 6.15759 4.2019 5.5481C3.59241 4.9386 3.25 4.11195 3.25 3.25C3.25 2.38805 3.59241 1.5614 4.2019 0.951903C4.8114 0.34241 5.63805 0 6.5 0ZM6.5 8.125C10.0913 8.125 13 9.57938 13 11.375V13H0V11.375C0 9.57938 2.90875 8.125 6.5 8.125Z" fill="black" fill-opacity="0.8"/>
</svg>
